<svg width="32" height="32" viewBox="0 0 32 32" fill="none" xmlns="http://www.w3.org/2000/svg">
  <rect width="32" height="32" rx="6" fill="url(#gradient)" />
  <path d="M8 10a2 2 0 0 1 2-2h12a2 2 0 0 1 2 2v12a2 2 0 0 1-2 2H10a2 2 0 0 1-2-2V10z" fill="white" opacity="0.9"/>
  <path d="M11 12h10M11 15h8M11 18h6" stroke="#8b5cf6" stroke-width="1.5" stroke-linecap="round"/>
  <circle cx="20" cy="18" r="2" fill="#f59e0b" opacity="0.8"/>
  <path d="M19 17.5l1 0.5l-1 0.5" stroke="white" stroke-width="0.8" stroke-linecap="round" stroke-linejoin="round"/>
  <defs>
    <linearGradient id="gradient" x1="0%" y1="0%" x2="100%" y2="100%">
      <stop offset="0%" style="stop-color:#8b5cf6;stop-opacity:1" />
      <stop offset="100%" style="stop-color:#3b82f6;stop-opacity:1" />
    </linearGradient>
  </defs>
</svg>
